<svg xmlns="http://www.w3.org/2000/svg" viewBox="0 0 533.33331 533.33331" height="533.33331" width="533.33331"><defs><clipPath id="a"><path d="M0 400h400V0H0z"/></clipPath><clipPath id="b"><path d="M74.6477 22.8972H327.194V.014801H74.6477z"/></clipPath><clipPath id="c"><path d="M0 400h400V0H0z"/></clipPath></defs><g clip-path="url(#a)" transform="matrix(1.33333 0 0 -1.33333 0 533.33333)"><g clip-path="url(#b)" opacity=".10000598"><path d="M74.6477 10.7732l98.985-10.758 153.561 12.215-145.676 10.667z" fill="#2b2b2b"/></g></g><path d="M412.32105636 205.47067153l11.37599971-10.04799975 9.82399976-16.72266625-.71999998-38.19733238-22.84933277 23.23466609-6.73999983 26.69999933z" fill="#c4937d"/><path d="M472.45772152 70.57720824l-3.52666658 2.5986666L453.225722 100.9745408l-6.52533317 9.21999977 1.6613333 18.7226662-14.83999963 10.02666641 2.22399994 7.35466649-9.19199977 21.35199946-8.54533312 5.57999986-10.02799975 21.97866612 15.71733294.21333333 17.22799957-48.89066545 15.87866627-13.34266633-.60533332-23.40933275z" fill="#36795d"/><path d="M428.49292262 172.12933903l7.25333315-25.83066602-2.22533327-7.35466648-15.51333295 34.2866658zM468.93052161 73.17587484l3.52666658-2.5986666-5.90666652.44933332-19.84933284 39.16799902 8.1719998-4.78399988z" fill="#53af8a"/><path d="M398.68252337 173.230539l5.97333318-20.53066615 25.19066604-16.3599996 3.67466657 2.60399994-5.02799987 10.8826664-10.42533308 9.13866644-.06 14.26533297-4.41999988 9.68799976-10.37733308 7.51866648z" fill="#ffe6d6"/><path d="M448.59772212 140.08573983l-1.89733329 42.89999893-23.00266609 12.43733302 9.82399976-56.47866525z" fill="#f5cab3"/><path d="M269.26399327 481.54626463v18.22533288l22.50399944-6.94933316 12.79599968-9.71466643 4.17866656-16.41599959zM172.56639569 465.14519837l-6.7546665 34.71999913 19.48266618-.09466666 18.47733287-11.6919997 4.14266656-8.73733312z" fill="#2b614b"/><path d="M304.56412572 483.10799792l-35.29999912 16.66266625v9.47199977l29.93999925 2.50933327 36.76799908-2.50933327z" fill="#53af8a"/><path d="M335.9719916 518.25866371h-66.70799833v-9.01599977h66.70799833z" fill="#36795d"/><path d="M203.77186157 488.07826446l8.2119998 26.15866602-23.1066661 4.50799988-26.34533267-4.50799988 3.27866659-14.37199964z" fill="#53af8a"/><path d="M211.9839947 523.25199692h-49.45199876v-9.01599978h49.45199876z" fill="#36795d"/><path d="M131.95013003 345.67146802l-13.73333299 15.82266628-5.76399985 6.63733316 7.35866648 6.80799983 18.04266622-24.9133327z" fill="#f5cab3"/><path d="M118.21639704 320.12146866l-17.57866622 6.63999984-7.13999982 15.49733294 9.0533331 21.23599947 9.90133309 4.63733322.008-.00933333 13.90399965-14.26933298z" fill="#ffe6d6"/><path d="M132.62946335 344.89106804L106.553464 313.92306882l-5.91599985 12.83733301 25.72666602 27.09333266 5.5853332-8.18266647z" fill="#c4937d"/><path d="M112.45239719 368.13213413l-18.9546662-25.87333269-7.26799981 25.1733327 11.9519997 17.29999958 14.2786663-16.60933292z" fill="#f5cab3"/><path d="M206.76252816 229.84867092l-13.26266633-1.99599995-34.9546658-3.66266657 46.68399884 37.66399905 3.28399992 11.06399973 21.30666613 43.35066558 28.66266595-27.9479993z" fill="#738d56"/><path d="M188.87719528 279.60386968l15.43199961 27.06266599 16.15333293 7.25733315 11.64666638-16.57999959-23.59599941-41.08799897z" fill="#44612d"/><path d="M336.1431916 264.72733672l-68.84666495 101.22799746-35.18666579-68.61066495-27.7999993 9.32266644-52.71066535 146.75332966 71.22133155 43.10666559.25866666.196 118.13199705-46.51199884z" fill="#738d56"/><path d="M311.29665888 272.35373652l-23.31733275 40.71599899-11.8719997-10.66133307-17.62399956-14.08799965-26.37333267 9.02399978-8.08266647 189.2693286 105.33466404-222.53599444-17.1733329 5.87466652zM158.54452937 224.19027106l-53.85866532 71.61066488 64.95199838 9.88666642 25.57199936-62.43333177z" fill="#98c26c"/><path d="M104.67679738 295.80133594h.008l25.84799936 51.86933203 14.5986663-5.0533332 48.36799879-96.74533092z" fill="#738d56"/><path d="M195.20946179 243.25467059L130.5334634 342.2586681l23.44933275-1.77333329 13.47066633-8.14533313 41.05999897-76.0839981z" fill="#5a753d"/><path d="M126.3642635 353.85360115l34.78799914-11.5959997 6.30133317-9.9173331-36.9213324 9.9173331-25.84666603-46.45599885h-.00933333l-6.56133317 8.61599979z" fill="#36795d"/><path d="M351.29559122 123.47627358l-37.0893324 7.16266649 2.47199993 18.5386662 3.78666657 22.49199944 18.75199953-13.057333z" fill="#8f8f8e"/><path d="M309.81612559 106.369074l10.2666664 27.87733264 31.21333256-10.7706664z" fill="#dddddc"/><path d="M324.43265856 195.20933845l7.21066648 5.86666652 15.22133296 3.1106666 13.301333-28.35333263-21.18799947 7.08533315z" fill="#8f8f8e"/><path d="M339.21705819 158.6118727h-25.01066605l10.22666642 36.59733242L360.166391 175.8332056zM185.24426204 182.91893876l-30.61333257 8.38266646-8.92133311 23.37199941 18.4186662 3.39599992 23.52133275-19.9439995z" fill="#c4c3c3"/><path d="M181.27586213 161.55747263l-42.54799893 11.17333305 15.90266627 18.5706662 28.95999927 5.47066653 8.4199998-13.85333298z" fill="#8f8f8e"/><path d="M181.39466213 130.9270734l-8.41199979 1.81733328-6.40933317-8.19333313-27.84666597 48.17866547 43.50933224-6.01333319z" fill="#dddddc"/><path d="M205.4597282 203.10280492l-59.75066518 11.57066638 12.83599968 9.5173331 51.28799872-8.3959998z" fill="#8f8f8e"/><path d="M315.14159212 106.00494068l.088.364-.03733333-.364z" fill="#8e8e8e"/><path d="M417.15758957 232.1276042l-25.14666604-50.88133206-21.56799946 27.00133265-24.02933273 50.05333209z" fill="#738d56"/><path d="M324.43265856 195.20933845l-3.0666666 29.4533326 32.43333253 26.690666 16.64399958-43.10533226z" fill="#98c26c"/><path d="M329.3617251 264.07773673l45.88399885 7.02399983 27.96533264-19.74799951 7.64933314-23.12533276-57.0613319 23.12533276-24.43733273-25.89866602-39.12533236-40.43066566z" fill="#5a753d"/><path d="M398.68252337 173.230539l-6.67199984 8.01466647 18.84933287 46.9826655-35.61333245 42.87333225 10.3986664.93333331 37.41199907-41.18399897z" fill="#36795d"/><path d="M312.18905886 269.95200325l17.1733329-5.87466652-8.55866645-17.42666623z" fill="#728c56"/><path d="M258.4826602 288.32093613l2.24266662 1.41599996zM258.4826602 288.32093613l-64.98266504-41.21199897z" fill="#53af8a"/><path d="M314.66612547 246.96453716l-8.66666645 23.42799941-.82133332 1.95333329 7.0106665-2.39333328 8.61466645-23.30133275-3.28533325-6.68933316z" fill="#35785d"/><path d="M248.15746046 207.35760482l-4.27466656 18.09733288-40.11066566 17.79999955 60.90799848 42.30799894.36533332.516 40.13333233-13.733333z" fill="#53af8a"/><path d="M192.94386184 240.06373733l10.82799973 3.19066659 47.40666548-17.79866622-67.58933164-28.68399929-19.45999951 21.29866614z" fill="#73c6a4"/><path d="M287.6303928 179.82893884l.34933333-.03333333-.07733333-.15333333z" fill="#2b614b"/><path d="M260.72866015 279.42426968l-96.59999759-61.35466513-5.58399986 6.11999985 99.93866417 64.1319984 36.81066575 47.7319988 20.06266616-63.6999984zM248.15746046 207.35760482l-22.16666611-15.14133296-40.74666565-9.2973331-1.65466662 13.85333299 67.58933164 28.68266595z" fill="#36795d"/><path d="M327.07745849 174.99093896L304.90279238 45.52427553l-36.85333241-28.39866596-23.38533275 19.7799995-48.55733212-3.18933325-8.45733312 7.69866648 17.57999956 34.3066658 30.1826659 124.4039969 44.41733223-12.26666636z" fill="#ffe6d6"/><path d="M268.0499933 24.51720939l36.85333241 21.00666614-21.97333278-29.3213326-18.07199955-5.30266654-3.80933324 6.22666652z" fill="#ecebeb"/><path d="M227.6915943.00054333l.88133332 27.69733264 20.05466616 17.8253329 19.42266619-21.00533282-3.19199992-13.61733299z" fill="#dddddc"/><path d="M227.6915943.00054333l-35.39333244 27.69733264.39199999 4.34666656 3.00399992 2.47199994 52.86666535 11.07466639.06666666-.068z" fill="#c4c3c3"/><path d="M242.88919393 66.07480835l1.77466662 5.33866653-19.14533285 13.95599965-2.4746666-6.23999984zM270.88559323 61.32960847l2.11999994 6.3746665 19.9599995 3.1146666 1.3533333-4.3159999z" fill="#8f8f8e"/><path d="M225.5185277 85.3693412l47.79333213 48.87599878-2.4266666-41.6293323-17.5973329-16.99999957 14.9146663-2.6226666 7.67866647 21.4253328 7.12533316 11.8319997 9.95866642-35.43066578-19.95866617-3.11599992-4.80399988 5.2893332-14.9146663 2.6226666-8.62399978-4.20266656zM209.3309281 56.2784086l-13.225333-22.56266611-21.7933328 37.10399907 10.9346664 12.63999969 2.4026666 33.27466583-9.87866641-11.09466639-7.18266649 10.8906664-12.0439997 4.45733322 9.89733309 28.85999928 10.18533308-2.5466666 6.61999983 1.33999996-3.01066659 18.07599955 3.00799993 16.20133293 43.32933225 16.83333291 8.02933313.53866665z" fill="#f5cab3"/><path d="M178.62719553 147.30160632l3.60799991 19.41466618 9.63066643-22.97199943zM257.3633269 194.06333848l-28.78933261 5.68799986 21.87599945 8.49733312zM166.57359584 124.55174022l17.01599957 11.37733305-4.48666655-15.43466628z" fill="#c4937d"/><path d="M224.02746107 486.61439783l-72.4279982-33.1933325-3.20666658 10.09333308 74.42799814 33.01333251.25866666.19466666 118.4106637-35.5679991-.27866665-10.9426664z" fill="#36795d"/><path d="M273.31239317 134.24587331l-32.48933252 29.24399927 19.90533283 115.93466377 36.47733242 33.58799916 2.78799993 4.9453332-1.26666663 4.91999988-3.43333325 13.17599968 19.96666617 13.87599965-13.313333-141.6813298-18.97199953-71.90933153z" fill="#c4c3c3"/><path d="M319.09732536 309.66066893l17.0453329-44.93333221-19.46399951-115.55066378-28.19733263-18.24933288-5.5053332 5.41199986 32.2839992 213.59066133 10.96933306-21.28399947-5.6213332-9.1213331-3.08933325-4.49733322z" fill="#ecebeb"/><path d="M320.60785865 319.52506868l-21.88133278 3.35199991-1.5213333-9.86399975 21.89199945-3.35199991z" fill="#44612d"/><path d="M297.71532589 153.1453395l-30.27599924 5.17999988-1.3533333-6.15066652 30.27599924-5.17066654z" fill="#c4937d"/><g clip-path="url(#c)" transform="matrix(1.33333 0 0 -1.33333 0 533.33333)"><path d="M187.5816 323.9333c0-2.341-1.898-4.238-4.238-4.238-2.341 0-4.239 1.897-4.239 4.238s1.898 4.239 4.239 4.239c2.34 0 4.238-1.898 4.238-4.239M220.5964 331.4197c0-2.341-1.898-4.238-4.238-4.238-2.341 0-4.239 1.897-4.239 4.238s1.898 4.238 4.239 4.238c2.34 0 4.238-1.897 4.238-4.238" fill="#2b2b2b"/><path d="M201.1524 345.2553l8.142-11.58 7.066-31.871-11.376-2.489-6.153 31.466-8.865 12.507z" fill="#fff1e8"/><path d="M114.3878 355.5625l13.554-42.96 4.323 1.553 9.234-5.342 2.659 33.838-10.63 6.233 13.552 25.828-2.856 4.514zM216.3606 301.8047l-11.376-2.489 7.719-4.693z" fill="#8f8f8e"/></g></svg>